<svg width="27" height="34" viewBox="0 0 27 34" fill="none" xmlns="http://www.w3.org/2000/svg">
<path d="M8.5419 6.18947C7.40245 5.63431 4.95717 6.32556 3.65363 7.00603V1.69837C4.44507 1.56227 6.72626 0.881801 9.51955 1.01789C12.3183 1.15425 14.2216 3.46759 14.8268 4.82853C17.2942 11.2703 22.3408 24.535 22.7877 26.0592C23.2346 27.5835 23.7654 28.1006 23.905 28.1006H24.8827H26V33H21.8101C19.7989 33 18.2719 30.5503 17.7598 29.3255L13.4302 18.1657L7.28492 33H1C4.21229 25.7416 10.6369 11.1161 10.6369 10.6806C10.6369 10.1362 9.93855 6.86994 8.5419 6.18947Z" fill="black" stroke="black"/>
</svg>
